<?xml version="1.0" encoding="UTF-8"?>
<svg version="1.1" xmlns="http://www.w3.org/2000/svg" width="444" height="314">
<path d="M0 0 C146.52 0 293.04 0 444 0 C444 103.62 444 207.24 444 314 C297.48 314 150.96 314 0 314 C0 210.38 0 106.76 0 0 Z " fill="#FDFDFD" transform="translate(0,0)"/>
<path d="M0 0 C78.87 0 157.74 0 239 0 C239 0.66 239 1.32 239 2 C266.39 2 293.78 2 322 2 C322.24956592 25.4948492 322.24956592 25.4948492 322.35546875 35.6640625 C322.42717756 42.54916147 322.49913456 49.4342571 322.57275391 56.31933594 C322.63222181 61.88258252 322.69042308 67.44584116 322.74781799 73.0091095 C322.76970637 75.1105037 322.79201869 77.21189353 322.81480408 79.3132782 C322.97592675 94.20935101 323.02832435 109.10307313 323 124 C320.41902831 121.45888672 318.17772885 119.02115117 316.15234375 116.015625 C315.37673096 114.87250854 315.37673096 114.87250854 314.58544922 113.70629883 C313.76971436 112.49043091 313.76971436 112.49043091 312.9375 111.25 C311.77233401 109.52981338 310.60696629 107.80976339 309.44140625 106.08984375 C308.86148926 105.23116699 308.28157227 104.37249023 307.68408203 103.48779297 C305.26646921 99.91639914 302.82220077 96.3636543 300.375 92.8125 C299.48041372 91.51175659 298.58588236 90.21097542 297.69140625 88.91015625 C295.84681021 86.22925341 294.00007717 83.54983505 292.15234375 80.87109375 C288.02047541 74.87705462 283.90057256 68.87875885 279.875 62.8125 C275.6705381 56.48047907 271.34419023 50.23662267 267 44 C265.06617438 41.22257339 263.13254194 38.4450127 261.19921875 35.66723633 C259.86644143 33.7526239 258.53315135 31.83836826 257.19921875 29.92456055 C251.43024075 21.64036037 245.71950031 13.31927317 240 5 C239.67 26.78 239.34 48.56 239 71 C232.4 71 225.8 71 219 71 C218.14290309 65.09215343 217.28751823 59.18411183 216.43652344 53.27539062 C216.14652001 51.26547869 215.8555114 49.25571153 215.56347656 47.24609375 C215.14383693 44.3571461 214.72781745 41.46769677 214.3125 38.578125 C214.18125732 37.68007141 214.05001465 36.78201782 213.91479492 35.85675049 C213.79467041 35.01618103 213.6745459 34.17561157 213.55078125 33.30957031 C213.44419189 32.57232727 213.33760254 31.83508423 213.2277832 31.07550049 C213 29 213 29 213 25 C176.37 24.67 139.74 24.34 102 24 C102 57.33 102 90.66 102 125 C126.09 124.67 150.18 124.34 175 124 C176.98 114.43 178.96 104.86 181 95 C181.33 94.67 181.66 94.34 182 94 C187.94 94 193.88 94 200 94 C200 122.38 200 150.76 200 180 C193.73 180 187.46 180 181 180 C180.14372684 175.76450598 179.28862017 171.52881171 178.43652344 167.29248047 C178.14620082 165.85093448 177.85518844 164.40952722 177.56347656 162.96826172 C177.1446753 160.89847182 176.72834442 158.82819821 176.3125 156.7578125 C175.93544922 154.88826904 175.93544922 154.88826904 175.55078125 152.98095703 C175 150 175 150 175 148 C150.91 148 126.82 148 102 148 C102 183.64 102 219.28 102 256 C119.325 255.855625 136.65 255.71125 154.5 255.5625 C159.94048828 255.51939697 165.38097656 255.47629395 170.98632812 255.43188477 C175.92645773 255.38856225 175.92645773 255.38856225 180.86657715 255.34410095 C183.04169411 255.32506606 185.21682614 255.30770208 187.39196777 255.29173279 C199.96237665 255.19815247 212.46430693 254.99258167 225 254 C225.17715042 252.84226074 225.17715042 252.84226074 225.35787964 251.66113281 C226.62471969 243.49313158 228.4555147 235.52051801 230.4375 227.5 C230.88706055 225.65728516 230.88706055 225.65728516 231.34570312 223.77734375 C233.20321214 216.17807692 235.09717354 208.58802969 237 201 C243.27 201 249.54 201 256 201 C255.3942245 227.06923527 253.62862103 252.94206353 252 279 C168.84 279 85.68 279 0 279 C0 274.05 0 269.1 0 264 C4.49655361 262.7152704 8.469425 261.65398816 13.01171875 260.9296875 C14.09904297 260.75566406 15.18636719 260.58164062 16.30664062 260.40234375 C17.42232422 260.22832031 18.53800781 260.05429687 19.6875 259.875 C21.37842773 259.60236328 21.37842773 259.60236328 23.10351562 259.32421875 C27.47229949 258.63290613 31.56787306 258 36 258 C36 179.46 36 100.92 36 20 C33.03 20 30.06 20 27 20 C24.81666683 19.77390498 22.63764394 19.49773845 20.46875 19.16015625 C18.75945313 18.8962207 18.75945313 18.8962207 17.015625 18.62695312 C15.85546875 18.44068359 14.6953125 18.25441406 13.5 18.0625 C12.30890625 17.88009766 11.1178125 17.69769531 9.890625 17.50976562 C1.13553656 16.13553656 1.13553656 16.13553656 0 15 C0 10.05 0 5.1 0 0 Z " fill="#282A86" transform="translate(10,15)"/>
<path d="M0 0 C146.52 0 293.04 0 444 0 C444 103.62 444 207.24 444 314 C297.48 314 150.96 314 0 314 C0 210.38 0 106.76 0 0 Z M6 8 C6 107.33 6 206.66 6 309 C147.24 309 288.48 309 434 309 C434 209.67 434 110.34 434 8 C292.76 8 151.52 8 6 8 Z " fill="#E7EBF5" transform="translate(0,0)"/>
<path d="M0 0 C23.1 0 46.2 0 70 0 C70 51.15 70 102.3 70 155 C74.29 155.66 78.58 156.32 83 157 C84.65 157.66 86.3 158.32 88 159 C88 162.96 88 166.92 88 171 C58.3 171 28.6 171 -2 171 C-2 167.04 -2 163.08 -2 159 C0.22667765 158.32506659 2.45645977 157.66036956 4.6875 157 C5.92886719 156.62875 7.17023438 156.2575 8.44921875 155.875 C12 155 12 155 17 155 C17 109.13 17 63.26 17 16 C13.37 15.34 9.74 14.68 6 14 C3.98356874 13.38481758 1.97175656 12.74607005 0 12 C0 8.04 0 4.08 0 0 Z " fill="#282C87" transform="translate(340,123)"/>
<path d="M0 0 C1.83718021 -0.02654136 3.6742133 -0.06739448 5.51074219 -0.12304688 C8.16337124 -0.2025013 10.81314947 -0.23536449 13.46679688 -0.25878906 C14.68751389 -0.30827698 14.68751389 -0.30827698 15.93289185 -0.35876465 C20.70401586 -0.34219288 23.07431719 0.38267116 26.48974609 3.80566406 C27.54244524 5.02337151 28.59469671 6.24146612 29.64648438 7.45996094 C30.8586104 8.54186086 32.08621152 9.60687463 33.33398438 10.64746094 C33.99454834 11.23906006 34.6551123 11.83065918 35.33569336 12.44018555 C37.05130073 13.93973333 38.82712302 15.37096007 40.63110352 16.76293945 C46.42316945 21.51859897 50.18460384 25.72090671 51.19792175 33.33317566 C51.5147257 37.63860707 51.50900401 41.89657603 51.39648438 46.20996094 C51.39229492 47.10126709 51.38810547 47.99257324 51.38378906 48.91088867 C51.28662691 58.87270867 50.93075888 67.28701473 43.89746094 74.96875 C40.67369358 77.82049041 37.39180823 80.33329433 33.64648438 82.45996094 C32.98648438 82.12996094 32.32648438 81.79996094 31.64648438 81.45996094 C36.59648437 76.50996094 41.54648437 71.55996094 46.64648438 66.45996094 C43.9158276 64.21754249 43.9158276 64.21754249 41.25976562 64.54589844 C37.86987371 65.73160054 36.28010385 67.46891717 33.83398438 70.08496094 C30.68864334 73.40504314 27.57966241 76.35890365 23.95898438 79.14746094 C22.00303721 80.69052263 22.00303721 80.69052263 20.64648438 82.45996094 C20.44278321 86.31056461 20.44278321 86.31056461 21.64648438 89.45996094 C22.96648437 89.12996094 24.28648437 88.79996094 25.64648438 88.45996094 C24.6496582 90.38720703 24.6496582 90.38720703 22.64648438 92.45996094 C19.84551204 93.08988773 17.43214228 93.44199939 14.59570312 93.62402344 C13.79291428 93.67869781 12.99012543 93.73337219 12.16300964 93.78970337 C9.55285407 93.93386085 6.94730159 94.02106565 4.33398438 94.08496094 C3.45188293 94.10909058 2.56978149 94.13322021 1.66094971 94.15808105 C-8.90149875 94.29732373 -17.20077148 93.56532656 -25.22291565 86.25759888 C-29.34753066 82.1632551 -32.99638503 77.64949542 -36.38525391 72.93359375 C-38.25013674 70.33323523 -38.25013674 70.33323523 -41.02905273 68.66650391 C-44.35610986 65.50822827 -44.3029288 62.30770736 -44.47460938 57.95214844 C-44.5383651 56.70045616 -44.5383651 56.70045616 -44.60340881 55.42347717 C-44.71177168 52.72627703 -44.76180916 50.03413506 -44.79101562 47.33496094 C-44.80487305 46.42457062 -44.81873047 45.5141803 -44.83300781 44.57620239 C-44.88096026 34.17132897 -44.70528099 25.56401554 -37.29516602 17.56005859 C-34.225903 14.84157726 -31.09918673 12.36582294 -27.69726562 10.07666016 C-13.30173798 0.14674515 -13.30173798 0.14674515 0 0 Z " fill="#7790CF" transform="translate(377.353515625,18.5400390625)"/>
<path d="M0 0 C27.06 0 54.12 0 82 0 C82.24956592 23.4948492 82.24956592 23.4948492 82.35546875 33.6640625 C82.42717756 40.54916147 82.49913456 47.4342571 82.57275391 54.31933594 C82.63222181 59.88258252 82.69042308 65.44584116 82.74781799 71.0091095 C82.76970637 73.1105037 82.79201869 75.21189353 82.81480408 77.3132782 C82.97592675 92.20935101 83.02832435 107.10307313 83 122 C80.41902831 119.45888672 78.17772885 117.02115117 76.15234375 114.015625 C75.63526855 113.25354736 75.11819336 112.49146973 74.58544922 111.70629883 C73.76971436 110.49043091 73.76971436 110.49043091 72.9375 109.25 C71.77233401 107.52981338 70.60696629 105.80976339 69.44140625 104.08984375 C68.86148926 103.23116699 68.28157227 102.37249023 67.68408203 101.48779297 C65.26646921 97.91639914 62.82220077 94.3636543 60.375 90.8125 C59.48041372 89.51175659 58.58588236 88.21097542 57.69140625 86.91015625 C55.84681021 84.22925341 54.00007717 81.54983505 52.15234375 78.87109375 C48.02047541 72.87705462 43.90057256 66.87875885 39.875 60.8125 C35.6705381 54.48047907 31.34419023 48.23662267 27 42 C25.75255069 40.20837056 24.50515961 38.41670059 23.2578125 36.625 C22.58427734 35.65763916 21.91074219 34.69027832 21.21679688 33.69360352 C19.13500171 30.70187337 17.05571066 27.70841386 14.9765625 24.71484375 C12.50447625 21.15653778 10.02120395 17.60672501 7.5234375 14.06640625 C6.51556536 12.62764594 5.50774868 11.18884678 4.5 9.75 C4.0373877 9.10119873 3.57477539 8.45239746 3.09814453 7.78393555 C0 3.33932221 0 3.33932221 0 0 Z " fill="#FC5F03" transform="translate(250,17)"/>
<path d="M0 0 C3.3 0 6.6 0 10 0 C10 103.62 10 207.24 10 314 C6.7 314 3.4 314 0 314 C0 313.01 0 312.02 0 311 C-69.63 311 -139.26 311 -211 311 C-211 310.67 -211 310.34 -211 310 C-141.37 310 -71.74 310 0 310 C0 210.01 0 110.02 0 7 C-141.57 7 -283.14 7 -429 7 C-429 106.99 -429 206.98 -429 310 C-357.39 310 -285.78 310 -212 310 C-212 310.33 -212 310.66 -212 311 C-283.94 311 -355.88 311 -430 311 C-430 210.35 -430 109.7 -430 6 C-288.1 6 -146.2 6 0 6 C0 4.02 0 2.04 0 0 Z " fill="#343B59" transform="translate(434,0)"/>
<path d="M0 0 C31.68 0.33 63.36 0.66 96 1 C96 33.01 96 65.02 96 98 C64.98 98 33.96 98 2 98 C2 106.58 2 115.16 2 124 C0 122 0 122 -0.24609566 119.84858513 C-0.24425207 118.95075876 -0.24240849 118.0529324 -0.24050903 117.12789917 C-0.24325836 116.09862305 -0.24600769 115.06934692 -0.24884033 114.00888062 C-0.2380545 112.30848129 -0.2380545 112.30848129 -0.22705078 110.57373047 C-0.22734283 109.38350281 -0.22763489 108.19327515 -0.22793579 106.96697998 C-0.22677915 103.69853958 -0.21673158 100.43026925 -0.20278788 97.16186285 C-0.19030636 93.74790018 -0.18911206 90.33393436 -0.18673706 86.91995239 C-0.18051469 80.45303099 -0.16409367 73.986177 -0.14403808 67.51928532 C-0.11951259 59.4360469 -0.1085475 51.35279758 -0.09765625 43.26953125 C-0.07816256 28.84630161 -0.03810067 14.42321915 0 0 Z M22 9 C20.78784195 10.08186404 19.56023848 11.14687248 18.3125 12.1875 C17.65217773 12.77942139 16.99185547 13.37134277 16.31152344 13.98120117 C14.59544465 15.47996073 12.81668844 16.90757254 11.00878906 18.29418945 C5.14774576 23.08339837 1.44813913 27.27368904 0.52397156 34.97502136 C0.31429857 38.43804727 0.28887077 41.86818857 0.38061523 45.3359375 C0.43758661 48.00405637 0.36072141 50.64571385 0.27148438 53.3125 C0.17078327 63.22416433 0.17078327 63.22416433 4.81542969 71.64941406 C7.54230943 74.27391321 10.50167193 76.54545252 13.53262329 78.80493164 C15.45781853 80.37285888 16.68542954 82.11616206 17.9609375 84.234375 C20.9571326 88.80643859 23.82912743 91.93367183 29 94 C35.64766381 95.25829866 42.44639919 95.18943577 49.1875 95.125 C50.08386169 95.11835327 50.98022339 95.11170654 51.90374756 95.1048584 C54.49446926 95.06665606 57.07911761 94.98696686 59.66796875 94.8828125 C60.46121048 94.85891449 61.25445221 94.83501648 62.07173157 94.81039429 C66.53962474 94.55262988 66.53962474 94.55262988 70.02075195 91.94482422 C70.34390381 91.30303223 70.66705566 90.66124023 71 90 C69.68 90.33 68.36 90.66 67 91 C66.05074337 88.22497009 65.59663736 86.84087309 66 84 C68.34270709 80.76011885 71.28942148 78.28248944 74.3125 75.6875 C75.11107422 74.97271484 75.90964844 74.25792969 76.73242188 73.52148438 C78.21163492 72.19928974 79.69892009 70.88603337 81.1965332 69.5847168 C82.50524692 68.43474241 83.76809646 67.23190354 85 66 C88.125 66.375 88.125 66.375 91 67 C91 69 91 69 89.71484375 70.51220703 C89.12832031 71.08825684 88.54179687 71.66430664 87.9375 72.2578125 C86.99003906 73.19560547 86.99003906 73.19560547 86.0234375 74.15234375 C85.35570312 74.80332031 84.68796875 75.45429687 84 76.125 C83.33226562 76.78371094 82.66453125 77.44242187 81.9765625 78.12109375 C80.32207751 79.75194324 78.66311384 81.3779585 77 83 C82.39502943 83 85.87128107 79.646144 89.74194336 76.13793945 C98.30690708 66.43825987 97.45594595 52.38186863 96.88722229 40.15455627 C96.1556557 30.41228753 93.98206969 23.69937047 86.5 16.9375 C84.17764286 15.03876965 81.83217238 13.291166 79.34375 11.61669922 C75.27310183 8.80880003 71.49835203 5.49835203 68 2 C62.55273794 1.65847887 57.10332382 1.60023907 51.64648438 1.54003906 C49.80930417 1.5134977 47.97227108 1.47264458 46.13574219 1.41699219 C43.48311313 1.33753776 40.8333349 1.30467458 38.1796875 1.28125 C37.36587616 1.24825806 36.55206482 1.21526611 35.71359253 1.18127441 C28.89064042 1.2049729 26.29864762 4.02002163 22 9 Z " fill="#FCFDFD" transform="translate(332,17)"/>
<path d="M0 0 C31.68 0.33 63.36 0.66 96 1 C96 33.01 96 65.02 96 98 C64.98 98 33.96 98 2 98 C2 106.58 2 115.16 2 124 C0 122 0 122 -0.24609566 119.84858513 C-0.24425207 118.95075876 -0.24240849 118.0529324 -0.24050903 117.12789917 C-0.24325836 116.09862305 -0.24600769 115.06934692 -0.24884033 114.00888062 C-0.2380545 112.30848129 -0.2380545 112.30848129 -0.22705078 110.57373047 C-0.22734283 109.38350281 -0.22763489 108.19327515 -0.22793579 106.96697998 C-0.22677915 103.69853958 -0.21673158 100.43026925 -0.20278788 97.16186285 C-0.19030636 93.74790018 -0.18911206 90.33393436 -0.18673706 86.91995239 C-0.18051469 80.45303099 -0.16409367 73.986177 -0.14403808 67.51928532 C-0.11951259 59.4360469 -0.1085475 51.35279758 -0.09765625 43.26953125 C-0.07816256 28.84630161 -0.03810067 14.42321915 0 0 Z M22 9 C20.78878201 10.0829164 19.55841814 11.14469372 18.3125 12.1875 C17.65268127 12.77460754 16.99286255 13.36171509 16.31304932 13.96661377 C14.57563746 15.49396095 12.79513959 16.97251737 10.99505615 18.42547607 C6.37526322 22.35752333 2.62766422 25.77882776 0.94421387 31.73620605 C0.61694491 35.96437496 0.64152754 40.03644203 0.828125 44.265625 C0.84582282 45.62347469 0.85803143 46.98140705 0.86474609 48.33935547 C0.92703694 53.31083881 1.09457594 58.28055636 1.25 63.25 C1.4975 74.3875 1.745 85.525 2 97 C32.69 97 63.38 97 95 97 C95.37125 85.98625 95.7425 74.9725 96.125 63.625 C96.28887207 60.18658691 96.45274414 56.74817383 96.62158203 53.20556641 C97.39277169 34.99289355 97.39277169 34.99289355 88.87106323 19.47225952 C85.82860891 16.65418901 82.6994924 14.09757682 79.32562256 11.68719482 C75.31976847 8.78102406 71.50248658 5.50248658 68 2 C62.55273794 1.65847887 57.10332382 1.60023907 51.64648438 1.54003906 C49.80930417 1.5134977 47.97227108 1.47264458 46.13574219 1.41699219 C43.48311313 1.33753776 40.8333349 1.30467458 38.1796875 1.28125 C37.36587616 1.24825806 36.55206482 1.21526611 35.71359253 1.18127441 C28.89064042 1.2049729 26.29864762 4.02002163 22 9 Z " fill="#CDBDB4" transform="translate(332,17)"/>
<path d="M0 0 C1.32 0 2.64 0 4 0 C4 99.99 4 199.98 4 303 C2.68 303 1.36 303 0 303 C0 203.01 0 103.02 0 0 Z " fill="#F0F1F7" transform="translate(436,7)"/>
<path d="M0 0 C2.64 0 5.28 0 8 0 C8 103.62 8 207.24 8 314 C5.36 314 2.72 314 0 314 C0 313.01 0 312.02 0 311 C1.65 311 3.3 311 5 311 C5 210.35 5 109.7 5 6 C3.35 6 1.7 6 0 6 C0 4.02 0 2.04 0 0 Z " fill="#EAEEFB" transform="translate(436,0)"/>
<path d="M0 0 C0.33 0.66 0.66 1.32 1 2 C2.9914056 2.38133299 4.99279077 2.71325582 7 3 C7.66 3.33 8.32 3.66 9 4 C8.93603027 4.90540527 8.87206055 5.81081055 8.80615234 6.74365234 C7.13828598 25.96254158 7.13828598 25.96254158 14.00390625 43.1640625 C20.74495285 50.29351593 26.78354899 56.02304556 36.7578125 56.31640625 C37.42086395 56.33718735 38.08391541 56.35796844 38.76705933 56.37937927 C40.88626694 56.44479231 43.005599 56.50372105 45.125 56.5625 C46.56121081 56.60569309 47.99740902 56.64930764 49.43359375 56.69335938 C52.95559594 56.80046499 56.47773825 56.90175575 60 57 C63 62.75 63 62.75 63 65 C58.07040958 65.14296383 53.14080336 65.28536564 48.21118164 65.42724609 C46.53409384 65.47559399 44.85701046 65.5240956 43.17993164 65.57275391 C40.76970548 65.64265688 38.35946396 65.7120075 35.94921875 65.78125 C35.19912033 65.80312378 34.44902191 65.82499756 33.67619324 65.84753418 C25.10849919 66.09240462 25.10849919 66.09240462 22.81103516 64.13574219 C21.97878418 63.28141602 21.1465332 62.42708984 20.2890625 61.546875 C19.37382812 60.61746094 18.45859375 59.68804687 17.515625 58.73046875 C16.55165412 57.73739562 15.58811612 56.74390213 14.625 55.75 C12.74591367 53.82441424 10.86176316 51.90399645 8.9765625 49.984375 C8.14205566 49.12553711 7.30754883 48.26669922 6.44775391 47.38183594 C4.09050353 44.92125286 4.09050353 44.92125286 1.22167969 43.25756836 C-1.68824875 40.30063338 -1.5777283 38.50343784 -1.59213257 34.47383118 C-1.5694632 33.6226622 -1.54679382 32.77149323 -1.5234375 31.89453125 C-1.51873444 31.01472092 -1.51403137 30.13491058 -1.50918579 29.22843933 C-1.48785411 26.42232632 -1.43122268 23.61810783 -1.375 20.8125 C-1.35849331 18.91212709 -1.34414513 17.01173412 -1.33203125 15.11132812 C-1.19551761 1.19551761 -1.19551761 1.19551761 0 0 Z " fill="#586697" transform="translate(335,44)"/>
<path d="M0 0 C1.26932121 -0.02065773 1.26932121 -0.02065773 2.56428528 -0.04173279 C4.35895224 -0.06503398 6.1537063 -0.08228452 7.94848633 -0.09399414 C10.68018515 -0.12083002 13.40795539 -0.19567915 16.13867188 -0.27148438 C17.88408856 -0.28815034 19.62953585 -0.30191379 21.375 -0.3125 C22.18567429 -0.34235489 22.99634857 -0.37220978 23.83158875 -0.40296936 C28.58961883 -0.36652798 30.95557384 0.3768565 34.3605957 3.78930664 C35.41392548 5.00636926 36.46690814 6.22373239 37.51953125 7.44140625 C38.73173896 8.52321465 39.95934566 9.58821532 41.20703125 10.62890625 C41.86759521 11.22050537 42.52815918 11.81210449 43.20874023 12.42163086 C44.92434761 13.92117865 46.7001699 15.35240538 48.50415039 16.74438477 C54.29621633 21.50004429 58.05765072 25.70235202 59.07096863 33.31462097 C59.38777257 37.62005238 59.38205089 41.87802135 59.26953125 46.19140625 C59.2653418 47.0827124 59.26115234 47.97401855 59.25683594 48.89233398 C59.15967378 58.85415398 58.80380576 67.26846004 51.77050781 74.95019531 C48.54674045 77.80193572 45.26485511 80.31473964 41.51953125 82.44140625 C40.52953125 81.94640625 40.52953125 81.94640625 39.51953125 81.44140625 C46.94453125 74.01640625 46.94453125 74.01640625 54.51953125 66.44140625 C52.20953125 65.45140625 49.89953125 64.46140625 47.51953125 63.44140625 C47.60763062 62.02214844 47.60763062 62.02214844 47.69750977 60.57421875 C49.46583302 41.12282583 49.46583302 41.12282583 42.7734375 23.7265625 C39.30860863 20.27109904 35.53437129 17.33327118 31.40478516 14.71118164 C29.48968266 13.42130233 27.97470919 12.23723726 26.51953125 10.44140625 C26.78886383 7.20941534 27.49481696 4.51554911 28.51953125 1.44140625 C16.96953125 1.44140625 5.41953125 1.44140625 -6.48046875 1.44140625 C-6.81046875 2.43140625 -7.14046875 3.42140625 -7.48046875 4.44140625 C-8.47046875 3.78140625 -9.46046875 3.12140625 -10.48046875 2.44140625 C-7.47088526 -0.56817724 -4.0433673 0.05732476 0 0 Z " fill="#5B6996" transform="translate(369.48046875,18.55859375)"/>
<path d="M0 0 C78.54 0 157.08 0 238 0 C238 20.79 238 41.58 238 63 C237.67 63 237.34 63 237 63 C237 42.87 237 22.74 237 2 C160.11 2 83.22 2 4 2 C3.67 5.96 3.34 9.92 3 14 C6.3 14.33 9.6 14.66 13 15 C13 15.33 13 15.66 13 16 C11.02090602 16.02686553 9.04171029 16.04633375 7.0625 16.0625 C5.96035156 16.07410156 4.85820312 16.08570312 3.72265625 16.09765625 C1 16 1 16 0 15 C0 10.05 0 5.1 0 0 Z " fill="#292C73" transform="translate(10,15)"/>
<path d="M0 0 C8.91 0 17.82 0 27 0 C20.30578512 7.80991736 20.30578512 7.80991736 16.1875 11.375 C11.85437845 15.18368929 7.80100689 19.18109102 3.8125 23.34765625 C2 25 2 25 0 25 C0 16.75 0 8.5 0 0 Z " fill="#FBFCFD" transform="translate(334,19)"/>
<path d="M0 0 C8.58 0 17.16 0 26 0 C26 8.25 26 16.5 26 25 C22.70296386 23.35148193 21.2454581 22.48470368 18.828125 19.98828125 C18.24949707 19.39821289 17.67086914 18.80814453 17.07470703 18.20019531 C16.47255371 17.57725586 15.87040039 16.95431641 15.25 16.3125 C10.75462357 11.72232391 6.25313081 7.2891522 1.2578125 3.234375 C0.84273438 2.82703125 0.42765625 2.4196875 0 2 C0 1.34 0 0.68 0 0 Z " fill="#FBFCFD" transform="translate(401,19)"/>
<path d="M0 0 C27.06 0 54.12 0 82 0 C82.24956592 23.4948492 82.24956592 23.4948492 82.35546875 33.6640625 C82.42717756 40.54916147 82.49913456 47.4342571 82.57275391 54.31933594 C82.63222181 59.88258252 82.69042308 65.44584116 82.74781799 71.0091095 C82.76970637 73.1105037 82.79201869 75.21189353 82.81480408 77.3132782 C82.97592675 92.20935101 83.02832435 107.10307313 83 122 C80.65949199 119.68746767 78.49255079 117.48904528 76.640625 114.765625 C76.24746094 114.19199219 75.85429687 113.61835938 75.44921875 113.02734375 C75.05347656 112.44082031 74.65773438 111.85429687 74.25 111.25 C73.83878906 110.64800781 73.42757812 110.04601562 73.00390625 109.42578125 C71.99876568 107.95313343 70.99884522 106.47692498 70 105 C70.99 104.67 71.98 104.34 73 104 C73 104.99 73 105.98 73 107 C73.99 107 74.98 107 76 107 C76.103125 107.598125 76.20625 108.19625 76.3125 108.8125 C76.94177772 111.40434372 76.94177772 111.40434372 80 114 C80.33 77.04 80.66 40.08 81 2 C54.93 2 28.86 2 2 2 C1.67 2.66 1.34 3.32 1 4 C0.67 2.68 0.34 1.36 0 0 Z " fill="#E56F21" transform="translate(250,17)"/>
<path d="M0 0 C0 12.21 0 24.42 0 37 C-7 35 -7 35 -8 34 C-8.15971977 31.62661361 -8.2592433 29.27881728 -8.31640625 26.90234375 C-8.33718735 26.19348526 -8.35796844 25.48462677 -8.37937927 24.75428772 C-8.44494598 22.48212695 -8.5037923 20.20984736 -8.5625 17.9375 C-8.60567849 16.40037817 -8.64929255 14.8632685 -8.69335938 13.32617188 C-8.80063449 9.5509041 -8.90188137 5.7755164 -9 2 C-7.68786298 1.66524067 -6.37527913 1.33223233 -5.0625 1 C-3.96615234 0.7215625 -3.96615234 0.7215625 -2.84765625 0.4375 C-1 0 -1 0 0 0 Z " fill="#20263A" transform="translate(426,46)"/>
<path d="M0 0 C2 2 2 2 3.125 4.6875 C3 8 3 8 1.69921875 9.52734375 C0.35373887 10.66668386 -1.02261009 11.76997995 -2.41796875 12.84765625 C-4.47718342 14.5641877 -6.151145 16.20126878 -7.92578125 18.18359375 C-8.43407471 18.73966309 -8.94236816 19.29573242 -9.46606445 19.86865234 C-10.47517836 20.98296594 -11.46544347 22.11469421 -12.43432617 23.26416016 C-13.875 24.81640625 -13.875 24.81640625 -17 27 C-20.01400062 26.84643339 -22.12126684 26.06401452 -25 25 C-24.41757374 21.56429713 -23.29879349 19.93126009 -20.83203125 17.50390625 C-20.18556641 16.86259766 -19.53910156 16.22128906 -18.87304688 15.56054688 C-17.85307617 14.57151367 -17.85307617 14.57151367 -16.8125 13.5625 C-15.8215332 12.57926758 -15.8215332 12.57926758 -14.81054688 11.57617188 C-4.60988846 1.53662949 -4.60988846 1.53662949 0 0 Z " fill="#A6B4D6" transform="translate(361,21)"/>
<path d="M0 0 C5 1 5 1 8 2 C8 12.23 8 22.46 8 33 C2 36 2 36 0 36 C0 24.12 0 12.24 0 0 Z " fill="#B8C7EC" transform="translate(335,47)"/>
<path d="M0 0 C0.78052734 -0.00322266 1.56105469 -0.00644531 2.36523438 -0.00976562 C8.17033019 0.04533019 8.17033019 0.04533019 10.4375 2.3125 C10.90126812 9.61684783 10.90126812 9.61684783 8.4375 13.3125 C2.69361976 14.44184643 -4.08000137 13.1902268 -9.5625 11.3125 C-11.5625 9.3125 -11.5625 9.3125 -11.875 6.375 C-11.5625 3.3125 -11.5625 3.3125 -10.28930664 1.64379883 C-7.29408917 -0.665394 -3.62327823 -0.07517175 0 0 Z " fill="#DB6135" transform="translate(283.5625,28.6875)"/>
<path d="M0 0 C5.45454545 0.45454545 5.45454545 0.45454545 8 3 C7.57702637 3.41773682 7.15405273 3.83547363 6.71826172 4.26586914 C4.76776697 6.19533071 2.82137458 8.12888256 0.875 10.0625 C0.20984375 10.71927734 -0.4553125 11.37605469 -1.140625 12.05273438 C-4.8752525 15.76905488 -8.39654598 19.53573428 -11.68359375 23.65625 C-13.57357984 25.58549396 -15.35312259 25.92215066 -18 26 C-19.28029236 23.89128318 -20.06458297 22.59258111 -19.79272461 20.09814453 C-18.7742827 17.40258255 -17.3739452 16.12381513 -15.25390625 14.1796875 C-14.49916016 13.47972656 -13.74441406 12.77976562 -12.96679688 12.05859375 C-12.17337891 11.33800781 -11.37996094 10.61742188 -10.5625 9.875 C-9.37817383 8.78251953 -9.37817383 8.78251953 -8.16992188 7.66796875 C-6.70739781 6.31890563 -5.24165012 4.97332326 -3.77172852 3.63232422 C-2.48803237 2.44963269 -1.2342275 1.2342275 0 0 Z " fill="#BECEEF" transform="translate(417,82)"/>
<path d="M0 0 C11.55 0 23.1 0 35 0 C34 5 34 5 33 7 C22.77 7 12.54 7 2 7 C0 3 0 3 0 0 Z " fill="#BBCAEC" transform="translate(363,20)"/>
<path d="M0 0 C10.23 0 20.46 0 31 0 C31.66 2.31 32.32 4.62 33 7 C21.45 7 9.9 7 -2 7 C-1.34 4.69 -0.68 2.38 0 0 Z " fill="#1E2437" transform="translate(365,102)"/>
<path d="M0 0 C8.25 0 16.5 0 25 0 C24.67 1.32 24.34 2.64 24 4 C23.34 4 22.68 4 22 4 C21.34 6.97 20.68 9.94 20 13 C18.68 12.67 17.36 12.34 16 12 C15.5875 11.21625 15.175 10.4325 14.75 9.625 C12.17965709 5.76948563 9.36520571 5.35965424 5 4 C5 6.64 5 9.28 5 12 C5.66 12.33 6.32 12.66 7 13 C4.69 13 2.38 13 0 13 C0 8.71 0 4.42 0 0 Z " fill="#C9623A" transform="translate(296,28)"/>
<path d="M0 0 C7 6 7 6 8.26538086 7.51904297 C12.20084359 11.76952019 15.50456265 12.46505477 21.24609375 12.8046875 C23.97749861 12.87829791 26.70528791 12.88137697 29.4375 12.875 C30.85094849 12.89314814 32.26436545 12.91395748 33.67773438 12.9375 C37.11866533 12.98906824 40.55863263 13.00445073 44 13 C44 13.33 44 13.66 44 14 C34.1 14 24.2 14 14 14 C13.01 16.97 12.02 19.94 11 23 C6.84641746 19.56530675 3.21124658 16.36729534 0 12 C0.66 12 1.32 12 2 12 C2 11.34 2 10.68 2 10 C2.66 10 3.32 10 4 10 C4 9.01 4 8.02 4 7 C3.01 6.67 2.02 6.34 1 6 C0.67 4.02 0.34 2.04 0 0 Z " fill="#506090" transform="translate(351,88)"/>
<path d="M0 0 C0.33 0.66 0.66 1.32 1 2 C0.67 2.99 0.34 3.98 0 5 C2.46800047 3.84826645 4.04783565 2.95216435 6 1 C6.99 1.33 7.98 1.66 9 2 C6.70858186 4.58232083 4.36145766 7.10670929 2 9.625 C1.35160156 10.3571875 0.70320313 11.089375 0.03515625 11.84375 C-1.901167 13.87593084 -3.59140614 15.55325009 -6 17 C-9.1919331 17.02046111 -10.98928964 16.25670276 -14 15 C-14 14.34 -14 13.68 -14 13 C-12.4609375 11.484375 -12.4609375 11.484375 -10.375 9.75 C-6.72639996 6.65323448 -3.34103014 3.42455589 0 0 Z " fill="#BDCDF1" transform="translate(350,31)"/>
<path d="M0 0 C0.99 0.33 1.98 0.66 3 1 C3 3.97 3 6.94 3 10 C45.57 10.495 45.57 10.495 89 11 C88.505 5.555 88.505 5.555 88 0 C88.66 0 89.32 0 90 0 C90 3.96 90 7.92 90 12 C60.3 12 30.6 12 0 12 C0 8.04 0 4.08 0 0 Z " fill="#292B74" transform="translate(338,282)"/>
<path d="M0 0 C3.5 -0.3125 3.5 -0.3125 7 0 C9 2 9 2 9.265625 3.875 C9.26046875 4.57625 9.2553125 5.2775 9.25 6 C9.25515625 6.70125 9.2603125 7.4025 9.265625 8.125 C9 10 9 10 7 12 C3.89652746 12.33015665 1.84218824 12.50531294 -0.875 10.875 C-2.51151479 8.14747535 -2.32502803 6.12026907 -2 3 C-1.34 2.01 -0.68 1.02 0 0 Z " fill="#643128" transform="translate(285,29)"/>
<path d="M0 0 C0.33 0 0.66 0 1 0 C1.08076963 2.45898655 1.14037143 4.91533742 1.1875 7.375 C1.21263672 8.07367188 1.23777344 8.77234375 1.26367188 9.4921875 C1.29296875 11.5234375 1.29296875 11.5234375 1 15 C-2.74099384 17.4939959 -4.66335763 17.24222969 -9.13354492 17.22705078 C-9.85574722 17.22734283 -10.57794952 17.22763489 -11.32203674 17.22793579 C-13.70830312 17.22654285 -16.09425695 17.21098353 -18.48046875 17.1953125 C-20.1352776 17.19158224 -21.79008866 17.18873533 -23.44490051 17.18673706 C-27.79985657 17.17910163 -32.15467918 17.15945393 -36.50958252 17.1373291 C-40.95363561 17.11686873 -45.39771026 17.10773494 -49.84179688 17.09765625 C-58.56125915 17.07620793 -67.28061297 17.0420731 -76 17 C-76 16.67 -76 16.34 -76 16 C-51.91 15.67 -27.82 15.34 -3 15 C-2.01 10.05 -1.02 5.1 0 0 Z " fill="#312F76" transform="translate(188,124)"/>
<path d="M0 0 C9.59657342 -0.04630573 19.19310848 -0.0818602 28.78976917 -0.10362434 C33.24570978 -0.11406913 37.70157404 -0.12824099 42.1574707 -0.15087891 C46.45628804 -0.17258254 50.75503187 -0.18456339 55.05389977 -0.18975449 C56.69538213 -0.19345471 58.3368604 -0.20068017 59.97831154 -0.21146011 C62.27444838 -0.22594217 64.57028004 -0.22797934 66.86645508 -0.22705078 C68.17439529 -0.231492 69.48233551 -0.23593323 70.82991028 -0.24050903 C74 0 74 0 77 2 C77 2.66 77 3.32 77 4 C76.34 4 75.68 4 75 4 C75 5.32 75 6.64 75 8 C75.66 8 76.32 8 77 8 C77.495 14.93 77.495 14.93 78 22 C77.67 22 77.34 22 77 22 C76.33006007 18.87569239 75.66460636 15.75044614 75 12.625 C74.80921875 11.73554688 74.6184375 10.84609375 74.421875 9.9296875 C74.24140625 9.07890625 74.0609375 8.228125 73.875 7.3515625 C73.70742187 6.56604004 73.53984375 5.78051758 73.3671875 4.97119141 C73 3 73 3 73 1 C48.91 1 24.82 1 0 1 C0 0.67 0 0.34 0 0 Z " fill="#262C74" transform="translate(112,162)"/>
<path d="M0 0 C0.9178125 0.05220703 1.835625 0.10441406 2.78125 0.15820312 C5.02129261 0.2865389 7.26072975 0.42142597 9.5 0.5625 C9.5 0.8925 9.5 1.2225 9.5 1.5625 C3.89 1.5625 -1.72 1.5625 -7.5 1.5625 C-7.17 2.2225 -6.84 2.8825 -6.5 3.5625 C-6.43003986 5.26952735 -6.41559846 6.97918003 -6.4375 8.6875 C-6.44652344 9.59757812 -6.45554687 10.50765625 -6.46484375 11.4453125 C-6.47644531 12.14398438 -6.48804688 12.84265625 -6.5 13.5625 C-4.19 13.8925 -1.88 14.2225 0.5 14.5625 C0.17 15.2225 -0.16 15.8825 -0.5 16.5625 C-3.14 16.5625 -5.78 16.5625 -8.5 16.5625 C-8.5 15.9025 -8.5 15.2425 -8.5 14.5625 C-9.49 14.2325 -10.48 13.9025 -11.5 13.5625 C-11.17 13.2325 -10.84 12.9025 -10.5 12.5625 C-10.33946185 10.68928052 -10.33946185 10.68928052 -10.375 8.5625 C-10.37242187 7.840625 -10.36984375 7.11875 -10.3671875 6.375 C-10.30304724 4.54160585 -10.30304724 4.54160585 -11.5 3.5625 C-13.82817964 3.19489269 -16.1618385 2.86008419 -18.5 2.5625 C-18.5 1.9025 -18.5 1.2425 -18.5 0.5625 C-12.21187205 -0.42920242 -6.34227619 -0.40100147 0 0 Z " fill="#EC6318" transform="translate(303.5,26.4375)"/>
<path d="M0 0 C0.66 0 1.32 0 2 0 C2.66 2.31 3.32 4.62 4 7 C5.32 6.67 6.64 6.34 8 6 C7.0378418 7.97558594 7.0378418 7.97558594 5 10 C2.00511724 10.35519237 -0.61642991 10.46627491 -3.60546875 10.390625 C-4.44467361 10.38496521 -5.28387848 10.37930542 -6.14851379 10.37347412 C-8.82875633 10.35108406 -11.50766163 10.30088453 -14.1875 10.25 C-16.00453798 10.22993832 -17.82159692 10.21168697 -19.63867188 10.1953125 C-24.09296312 10.15121086 -28.54625485 10.08216659 -33 10 C-32.67 9.34 -32.34 8.68 -32 8 C-20.45 8 -8.9 8 3 8 C2.01 5.36 1.02 2.72 0 0 Z " fill="#868DA5" transform="translate(395,101)"/>
<path d="M0 0 C2.26598448 3.39897673 2.23742654 4.56319173 2.1953125 8.54296875 C2.18564453 10.15268555 2.18564453 10.15268555 2.17578125 11.79492188 C2.15902344 12.91447266 2.14226562 14.03402344 2.125 15.1875 C2.11597656 16.31865234 2.10695313 17.44980469 2.09765625 18.61523438 C2.07406862 21.41036828 2.041153 24.20507845 2 27 C-0.35996653 24.70970038 -2.50930121 22.48632175 -4.359375 19.765625 C-4.75253906 19.19199219 -5.14570313 18.61835938 -5.55078125 18.02734375 C-5.94652344 17.44082031 -6.34226562 16.85429687 -6.75 16.25 C-7.36681641 15.34701172 -7.36681641 15.34701172 -7.99609375 14.42578125 C-9.00123432 12.95313343 -10.00115478 11.47692498 -11 10 C-10.01 9.67 -9.02 9.34 -8 9 C-8 9.99 -8 10.98 -8 12 C-7.01 12 -6.02 12 -5 12 C-4.896875 12.598125 -4.79375 13.19625 -4.6875 13.8125 C-4.05822228 16.40434372 -4.05822228 16.40434372 -1 19 C-0.67 12.73 -0.34 6.46 0 0 Z " fill="#EF751A" transform="translate(331,112)"/>
<path d="M0 0 C5.94 0.33 11.88 0.66 18 1 C18 1.33 18 1.66 18 2 C13.38 2 8.76 2 4 2 C3.67 5.96 3.34 9.92 3 14 C6.3 14.33 9.6 14.66 13 15 C13 15.33 13 15.66 13 16 C11.02090602 16.02686553 9.04171029 16.04633375 7.0625 16.0625 C5.96035156 16.07410156 4.85820312 16.08570312 3.72265625 16.09765625 C1 16 1 16 0 15 C-0.07320163 12.4672235 -0.09227569 9.96896082 -0.0625 7.4375 C-0.041875 4.983125 -0.02125 2.52875 0 0 Z " fill="#433A80" transform="translate(10,15)"/>
<path d="M0 0 C0 0.66 0 1.32 0 2 C-7.49718613 4.03313522 -14.23013989 4.163576 -22 4 C-22 8.95 -22 13.9 -22 19 C-22.66 19 -23.32 19 -24 19 C-24 14.05 -24 9.1 -24 4 C-19.27162943 2.64903698 -15.10570813 1.58972689 -10.3125 0.875 C-9.21550781 0.70742188 -8.11851563 0.53984375 -6.98828125 0.3671875 C-4 0 -4 0 0 0 Z " fill="#534C87" transform="translate(34,275)"/>
<path d="M0 0 C1.98 0 3.96 0 6 0 C6.33 1.98 6.66 3.96 7 6 C7.66 6 8.32 6 9 6 C9 4.02 9 2.04 9 0 C10.32 0.33 11.64 0.66 13 1 C11.68 4.63 10.36 8.26 9 12 C5 11 5 11 3.515625 8.75 C3.09796875 7.8425 2.6803125 6.935 2.25 6 C1.82203125 5.0925 1.3940625 4.185 0.953125 3.25 C0 1 0 1 0 0 Z " fill="#58333A" transform="translate(307,29)"/>
<path d="M0 0 C6.27 0 12.54 0 19 0 C18.67 0.66 18.34 1.32 18 2 C12.72 1.67 7.44 1.34 2 1 C1.67 2.65 1.34 4.3 1 6 C0.61091546 7.69587766 0.21347043 9.38985434 -0.19140625 11.08203125 C-0.41376953 12.01337891 -0.63613281 12.94472656 -0.86523438 13.90429688 C-1.09533203 14.86400391 -1.32542969 15.82371094 -1.5625 16.8125 C-1.79646484 17.79154297 -2.03042969 18.77058594 -2.27148438 19.77929688 C-2.84683943 22.18639457 -3.42303742 24.59328721 -4 27 C-4.66 26.67 -5.32 26.34 -6 26 C-5.3814845 22.79038175 -4.75402356 19.58257402 -4.125 16.375 C-3.95097656 15.47136719 -3.77695313 14.56773437 -3.59765625 13.63671875 C-3.42363281 12.75371094 -3.24960938 11.87070313 -3.0703125 10.9609375 C-2.91320801 10.15446777 -2.75610352 9.34799805 -2.59423828 8.51708984 C-1.91233909 5.62868365 -0.9385029 2.81550869 0 0 Z " fill="#3D3675" transform="translate(247,216)"/>
<path d="M0 0 C2.7890625 0.93359375 2.7890625 0.93359375 4.7890625 2.93359375 C2.4790625 4.91359375 0.1690625 6.89359375 -2.2109375 8.93359375 C-2.5409375 7.28359375 -2.8709375 5.63359375 -3.2109375 3.93359375 C-6.03032867 6.14338683 -8.74152694 8.33421421 -11.2109375 10.93359375 C-11.8709375 10.60359375 -12.5309375 10.27359375 -13.2109375 9.93359375 C-11.69203314 8.2255768 -10.14485203 6.5426732 -8.5859375 4.87109375 C-7.72742188 3.93136719 -6.86890625 2.99164063 -5.984375 2.0234375 C-3.2109375 -0.06640625 -3.2109375 -0.06640625 0 0 Z " fill="#C0CFF3" transform="translate(420.2109375,82.06640625)"/>
<path d="M0 0 C1.65 0 3.3 0 5 0 C5 0.66 5 1.32 5 2 C6.65 1.34 8.3 0.68 10 0 C9.67 1.32 9.34 2.64 9 4 C7.68 3.67 6.36 3.34 5 3 C5 5.64 5 8.28 5 11 C5.66 11.33 6.32 11.66 7 12 C4.69 12 2.38 12 0 12 C0 8.04 0 4.08 0 0 Z " fill="#582942" transform="translate(296,29)"/>
<path d="M0 0 C-0.33 1.32 -0.66 2.64 -1 4 C-1.33 3.34 -1.66 2.68 -2 2 C-2.99 2.33 -3.98 2.66 -5 3 C-5 4.98 -5 6.96 -5 9 C-3.35 9.33 -1.7 9.66 0 10 C0 10.66 0 11.32 0 12 C-3.21666704 12.21931821 -5.43362303 12.26828383 -8.375 10.875 C-10 9 -10 9 -10.4375 6 C-10 3 -10 3 -8.9375 1.125 C-5.99772876 -0.58196395 -3.32129197 -0.18799766 0 0 Z " fill="#542D45" transform="translate(282,29)"/>
<path d="M0 0 C0.99 0.495 0.99 0.495 2 1 C2.37890625 3.25 2.37890625 3.25 2.5625 6 C2.53480538 9.30759619 2.53480538 9.30759619 4 12 C4.14193337 15.00331018 4.04236378 17.99217134 4 21 C9.61 21 15.22 21 21 21 C21 21.33 21 21.66 21 22 C14.73 22 8.46 22 2 22 C-0.28571429 7.14285714 -0.28571429 7.14285714 0 0 Z " fill="#413D7C" transform="translate(227,64)"/>
<path d="M0 0 C0.99 0.99 1.98 1.98 3 3 C-1.30769231 8.78461538 -1.30769231 8.78461538 -4.8125 9.875 C-5.534375 9.91625 -6.25625 9.9575 -7 10 C-7.66 8.35 -8.32 6.7 -9 5 C-7.88625 4.54625 -6.7725 4.0925 -5.625 3.625 C-2.03800992 2.27534014 -2.03800992 2.27534014 0 0 Z " fill="#B2BFE1" transform="translate(406,98)"/>
<path d="M0 0 C0.33 1.32 0.66 2.64 1 4 C1.66 4 2.32 4 3 4 C3 5.65 3 7.3 3 9 C8.28 9 13.56 9 19 9 C19 9.66 19 10.32 19 11 C13.06 11 7.12 11 1 11 C0.67 7.37 0.34 3.74 0 0 Z " fill="#313072" transform="translate(190,184)"/>
<path d="M0 0 C0 3.3 0 6.6 0 10 C2.31 10.33 4.62 10.66 7 11 C6.67 11.66 6.34 12.32 6 13 C3.36 13 0.72 13 -2 13 C-2 12.34 -2 11.68 -2 11 C-2.99 10.67 -3.98 10.34 -5 10 C-4.67 9.67 -4.34 9.34 -4 9 C-3.72046781 6.9412232 -3.55265649 4.88271568 -3.37890625 2.8125 C-3.25386719 2.214375 -3.12882812 1.61625 -3 1 C-1 0 -1 0 0 0 Z " fill="#DE632A" transform="translate(297,30)"/>
<path d="M0 0 C4.95 0.99 4.95 0.99 10 2 C9.67 3.32 9.34 4.64 9 6 C7.35 6.33 5.7 6.66 4 7 C4 6.34 4 5.68 4 5 C2.68 4.67 1.36 4.34 0 4 C0 2.68 0 1.36 0 0 Z " fill="#2F3489" transform="translate(416,279)"/>
<path d="M0 0 C0.74886475 0.00523682 1.49772949 0.01047363 2.26928711 0.01586914 C3.07817383 0.0190918 3.88706055 0.02231445 4.72045898 0.02563477 C5.5705957 0.03401367 6.42073242 0.04239258 7.29663086 0.05102539 C8.15063477 0.05553711 9.00463867 0.06004883 9.88452148 0.06469727 C12.00108749 0.07652166 14.11761771 0.0944577 16.23413086 0.11352539 C16.23413086 0.44352539 16.23413086 0.77352539 16.23413086 1.11352539 C10.62413086 1.11352539 5.01413086 1.11352539 -0.76586914 1.11352539 C-0.76586914 3.09352539 -0.76586914 5.07352539 -0.76586914 7.11352539 C-2.26586914 9.48852539 -2.26586914 9.48852539 -3.76586914 11.11352539 C-3.62544037 9.46722211 -3.47837585 7.8214836 -3.32836914 6.17602539 C-3.2471582 5.25950195 -3.16594727 4.34297852 -3.08227539 3.39868164 C-2.63514547 0.16941002 -2.63514547 0.16941002 0 0 Z " fill="#3F3F77" transform="translate(193.765869140625,108.886474609375)"/>
<path d="M0 0 C1.32 0.33 2.64 0.66 4 1 C4 3.64 4 6.28 4 9 C2.68 9.33 1.36 9.66 0 10 C0 6.7 0 3.4 0 0 Z " fill="#492F54" transform="translate(290,30)"/>
<path d="M0 0 C2.475 0.99 2.475 0.99 5 2 C5 2.66 5 3.32 5 4 C4.34 4 3.68 4 3 4 C3 5.32 3 6.64 3 8 C3.66 8 4.32 8 5 8 C5.33 12.62 5.66 17.24 6 22 C5.67 22 5.34 22 5 22 C4.82609741 21.16021606 4.82609741 21.16021606 4.64868164 20.3034668 C4.12180947 17.76442215 3.59218569 15.22595912 3.0625 12.6875 C2.88009766 11.80642578 2.69769531 10.92535156 2.50976562 10.01757812 C2.33251953 9.17001953 2.15527344 8.32246094 1.97265625 7.44921875 C1.81031494 6.66893311 1.64797363 5.88864746 1.48071289 5.0847168 C0.99433396 2.8247029 0.99433396 2.8247029 0 0 Z " fill="#3E3576" transform="translate(184,162)"/>
<path d="M0 0 C2.64 0 5.28 0 8 0 C7.67 1.32 7.34 2.64 7 4 C6.67 3.34 6.34 2.68 6 2 C5.34 2 4.68 2 4 2 C3.67 3.65 3.34 5.3 3 7 C2.34 7 1.68 7 1 7 C-0.0625 4.625 -0.0625 4.625 -1 2 C-0.67 1.34 -0.34 0.68 0 0 Z " fill="#D86426" transform="translate(313,28)"/>
<path d="M0 0 C1.32 0.33 2.64 0.66 4 1 C4.375 8.5 4.375 8.5 1 13 C0.67 8.71 0.34 4.42 0 0 Z " fill="#30389A" transform="translate(262,217)"/>
<path d="M0 0 C2.5654594 2.5654594 2.54046087 4.47686668 3 8 C2.34 8 1.68 8 1 8 C0.34 7.01 -0.32 6.02 -1 5 C-2.98 5.33 -4.96 5.66 -7 6 C-3.375 1.125 -3.375 1.125 0 0 Z " fill="#A2B1D9" transform="translate(361,21)"/>
<path d="M0 0 C0.99 0.33 1.98 0.66 3 1 C2.97679687 1.62648438 2.95359375 2.25296875 2.9296875 2.8984375 C2.91164063 3.71570313 2.89359375 4.53296875 2.875 5.375 C2.84019531 6.59316406 2.84019531 6.59316406 2.8046875 7.8359375 C2.78629949 10.21342243 2.78629949 10.21342243 5 12 C3.35 12 1.7 12 0 12 C0 8.04 0 4.08 0 0 Z " fill="#48407A" transform="translate(338,282)"/>
<path d="M0 0 C0.66 0.33 1.32 0.66 2 1 C2 3.64 2 6.28 2 9 C1.01 9 0.02 9 -1 9 C-1.09765625 2.84765625 -1.09765625 2.84765625 -1 1 C-0.67 0.67 -0.34 0.34 0 0 Z " fill="#C76832" transform="translate(288,30)"/>
<path d="M0 0 C0.99 0.99 1.98 1.98 3 3 C2.01 3 1.02 3 0 3 C-1.15837626 7.05431692 -0.83691257 9.21812119 1 13 C-0.32 12.01 -1.64 11.02 -3 10 C-2.49287967 6.28111761 -1.88391785 3.26545761 0 0 Z " fill="#4C5B92" transform="translate(399,19)"/>
<path d="M0 0 C0.33 0 0.66 0 1 0 C1.33 1.98 1.66 3.96 2 6 C3.65 6.33 5.3 6.66 7 7 C7 7.66 7 8.32 7 9 C1.46153846 9.36923077 1.46153846 9.36923077 -0.875 7.5 C-1.24625 7.005 -1.6175 6.51 -2 6 C-1.34 6 -0.68 6 0 6 C0 4.02 0 2.04 0 0 Z " fill="#5E312F" transform="translate(275,32)"/>
<path d="M0 0 C1.24546405 2.49092811 0.7767578 3.41080733 0 6 C0.66 6 1.32 6 2 6 C2.33 7.65 2.66 9.3 3 11 C-0.33557632 8.0094833 -2.15083921 5.06815373 -4 1 C-2.68 0.67 -1.36 0.34 0 0 Z " fill="#EF6E1E" transform="translate(301,86)"/>
<path d="M0 0 C0.66 0 1.32 0 2 0 C2 0.66 2 1.32 2 2 C2.99 2 3.98 2 5 2 C5.103125 2.61875 5.20625 3.2375 5.3125 3.875 C5.87525373 6.36526484 5.87525373 6.36526484 9 8 C8.34 8 7.68 8 7 8 C6.67 8.66 6.34 9.32 6 10 C4.99723227 8.52270825 3.99785546 7.04311423 3 5.5625 C2.443125 4.73878906 1.88625 3.91507813 1.3125 3.06640625 C0 1 0 1 0 0 Z " fill="#EF7423" transform="translate(277,58)"/>
<path d="M0 0 C2.475 0.495 2.475 0.495 5 1 C5 2.32 5 3.64 5 5 C3.35 5 1.7 5 0 5 C0 3.35 0 1.7 0 0 Z " fill="#F46209" transform="translate(277,33)"/>
<path d="M0 0 C2.5999298 2.51027705 4.99091227 4.9863684 7 8 C7 8.66 7 9.32 7 10 C5.68 9.67 4.36 9.34 3 9 C3 8.01 3 7.02 3 6 C2.34 6 1.68 6 1 6 C0.67 4.02 0.34 2.04 0 0 Z " fill="#FEE7C9" transform="translate(250,20)"/>
<path d="M0 0 C0.99 0 1.98 0 3 0 C3 0.99 3 1.98 3 3 C3.99 3 4.98 3 6 3 C6.66666667 5.66666667 7.33333333 8.33333333 8 11 C4.32966073 7.72291137 2.30718811 4.28477792 0 0 Z " fill="#EE701F" transform="translate(320,121)"/>
<path d="M0 0 C0.66 0 1.32 0 2 0 C2 2.64 2 5.28 2 8 C1.01 7.67 0.02 7.34 -1 7 C-1.04254356 5.00045254 -1.04080783 2.99958364 -1 1 C-0.67 0.67 -0.34 0.34 0 0 Z " fill="#502859" transform="translate(284,31)"/>
<path d="M0 0 C0.66 0 1.32 0 2 0 C2.66 2.31 3.32 4.62 4 7 C5.32 6.67 6.64 6.34 8 6 C6.68 7.32 5.36 8.64 4 10 C2.68 6.7 1.36 3.4 0 0 Z " fill="#636C98" transform="translate(395,101)"/>
<path d="M0 0 C2.52588702 2.36292656 3.88820837 3.66462511 5 7 C3.35 6.67 1.7 6.34 0 6 C0 4.02 0 2.04 0 0 Z " fill="#FEEED3" transform="translate(300,93)"/>
<path d="M0 0 C-1 3 -1 3 -3.8125 4.5625 C-4.864375 5.036875 -5.91625 5.51125 -7 6 C-7.78375 6.391875 -8.5675 6.78375 -9.375 7.1875 C-9.91125 7.455625 -10.4475 7.72375 -11 8 C-8.21659292 4.18570141 -5.12174212 0 0 0 Z " fill="#687DBC" transform="translate(355,40)"/>
<path d="M0 0 C0.66 0 1.32 0 2 0 C2 0.66 2 1.32 2 2 C3.32 2.33 4.64 2.66 6 3 C6 4.65 6 6.3 6 8 C1.125 3.375 1.125 3.375 0 0 Z " fill="#EE6B14" transform="translate(271,49)"/>
<path d="M0 0 C1.98 0 3.96 0 6 0 C5.01 0.495 5.01 0.495 4 1 C4.33 3.64 4.66 6.28 5 9 C2.38952199 7.694761 2.31933577 6.64173426 1.375 3.9375 C1.11460937 3.20402344 0.85421875 2.47054688 0.5859375 1.71484375 C0.39257812 1.14894531 0.19921875 0.58304688 0 0 Z " fill="#642847" transform="translate(307,29)"/>
<path d="M0 0 C0.99 0.33 1.98 0.66 3 1 C3.33 1.99 3.66 2.98 4 4 C2.35 3.67 0.7 3.34 -1 3 C-1 4.65 -1 6.3 -1 8 C-1.33 8 -1.66 8 -2 8 C-2.125 5.125 -2.125 5.125 -2 2 C-1.34 1.34 -0.68 0.68 0 0 Z " fill="#C8642C" transform="translate(278,30)"/>
</svg>
